<mxfile host="app.diagrams.net" modified="2024-04-09T13:34:02.697Z" agent="Mozilla/5.0 (Windows NT 10.0; Win64; x64) AppleWebKit/537.36 (KHTML, like Gecko) Chrome/123.0.0.0 Safari/537.36" etag="0G43vi-jEglxX5jyUh53" version="24.2.3" type="device">
  <diagram name="PÃ¡gina-1" id="ZyOIvIx43CTJ2DTMDYnq">
    <mxGraphModel dx="1290" dy="522" grid="1" gridSize="10" guides="1" tooltips="1" connect="1" arrows="1" fold="1" page="1" pageScale="1" pageWidth="827" pageHeight="1169" math="0" shadow="0">
      <root>
        <mxCell id="0" />
        <mxCell id="1" parent="0" />
        <mxCell id="gRJ94_HTBJ3xvckYf9Yn-3" value="" style="edgeStyle=orthogonalEdgeStyle;rounded=0;orthogonalLoop=1;jettySize=auto;html=1;" edge="1" parent="1" source="gRJ94_HTBJ3xvckYf9Yn-1" target="gRJ94_HTBJ3xvckYf9Yn-2">
          <mxGeometry relative="1" as="geometry" />
        </mxCell>
        <mxCell id="gRJ94_HTBJ3xvckYf9Yn-1" value="Inicio" style="ellipse;whiteSpace=wrap;html=1;" vertex="1" parent="1">
          <mxGeometry x="354" width="120" height="80" as="geometry" />
        </mxCell>
        <mxCell id="gRJ94_HTBJ3xvckYf9Yn-9" value="" style="edgeStyle=orthogonalEdgeStyle;rounded=0;orthogonalLoop=1;jettySize=auto;html=1;" edge="1" parent="1" source="gRJ94_HTBJ3xvckYf9Yn-2" target="gRJ94_HTBJ3xvckYf9Yn-8">
          <mxGeometry relative="1" as="geometry" />
        </mxCell>
        <mxCell id="gRJ94_HTBJ3xvckYf9Yn-2" value="array con 5 nombres de personas y 5 edades de las personas" style="shape=parallelogram;perimeter=parallelogramPerimeter;whiteSpace=wrap;html=1;fixedSize=1;" vertex="1" parent="1">
          <mxGeometry x="249" y="103" width="330" height="67" as="geometry" />
        </mxCell>
        <mxCell id="gRJ94_HTBJ3xvckYf9Yn-11" value="" style="edgeStyle=orthogonalEdgeStyle;rounded=0;orthogonalLoop=1;jettySize=auto;html=1;" edge="1" parent="1" source="gRJ94_HTBJ3xvckYf9Yn-8" target="gRJ94_HTBJ3xvckYf9Yn-10">
          <mxGeometry relative="1" as="geometry" />
        </mxCell>
        <mxCell id="gRJ94_HTBJ3xvckYf9Yn-8" value="establecer ciclo" style="whiteSpace=wrap;html=1;" vertex="1" parent="1">
          <mxGeometry x="354" y="203.5" width="120" height="60" as="geometry" />
        </mxCell>
        <mxCell id="gRJ94_HTBJ3xvckYf9Yn-13" value="" style="edgeStyle=orthogonalEdgeStyle;rounded=0;orthogonalLoop=1;jettySize=auto;html=1;" edge="1" parent="1" source="gRJ94_HTBJ3xvckYf9Yn-10" target="gRJ94_HTBJ3xvckYf9Yn-12">
          <mxGeometry relative="1" as="geometry" />
        </mxCell>
        <mxCell id="gRJ94_HTBJ3xvckYf9Yn-10" value="imprimir los nombres con sus edades" style="whiteSpace=wrap;html=1;" vertex="1" parent="1">
          <mxGeometry x="354" y="292.5" width="120" height="60" as="geometry" />
        </mxCell>
        <mxCell id="gRJ94_HTBJ3xvckYf9Yn-12" value="Fim" style="ellipse;whiteSpace=wrap;html=1;" vertex="1" parent="1">
          <mxGeometry x="354" y="400" width="120" height="80" as="geometry" />
        </mxCell>
      </root>
    </mxGraphModel>
  </diagram>
</mxfile>
